<?xml version="1.0" encoding="UTF-8" standalone="no"?>
<svg
   xmlns:dc="http://purl.org/dc/elements/1.1/"
   xmlns:cc="http://creativecommons.org/ns#"
   xmlns:rdf="http://www.w3.org/1999/02/22-rdf-syntax-ns#"
   xmlns:svg="http://www.w3.org/2000/svg"
   xmlns="http://www.w3.org/2000/svg"
   xmlns:xlink="http://www.w3.org/1999/xlink"
   id="svg8"
   version="1.1"
   viewBox="0 0 86.931969 86.541512"
   height="86.541512mm"
   width="86.931969mm">
  <title
     id="title6181">InstagramLogo</title>
  <defs
     id="defs2">
    <linearGradient
       id="linearGradient6179">
      <stop
         id="stop6171"
         offset="0"
         style="stop-color:#ffdd84;stop-opacity:1" />
      <stop
         style="stop-color:#f05147;stop-opacity:1"
         offset="0.50461656"
         id="stop6173" />
      <stop
         id="stop6175"
         offset="0.68066496"
         style="stop-color:#d42f88;stop-opacity:1" />
      <stop
         id="stop6177"
         offset="1"
         style="stop-color:#515bd0;stop-opacity:1" />
    </linearGradient>
    <radialGradient
       gradientUnits="userSpaceOnUse"
       gradientTransform="matrix(1.0961448,1.0746054,-1.7075163,1.7417415,336.13192,-302.47451)"
       r="43.465984"
       fy="203.48091"
       fx="138.972"
       cy="203.48091"
       cx="138.972"
       id="radialGradient6111"
       xlink:href="#linearGradient6179" />
  </defs>
  <metadata
     id="metadata5">
    <rdf:RDF>
      <cc:Work
         rdf:about="">
        <dc:format>image/svg+xml</dc:format>
        <dc:type
           rdf:resource="http://purl.org/dc/dcmitype/StillImage" />
        <dc:title>InstagramLogo</dc:title>
      </cc:Work>
    </rdf:RDF>
  </metadata>
  <g
     transform="translate(-111.49721,-119.78165)"
     id="layer1">
    <path
       d="m 154.668,119.78309 -18.65519,0.21446 c -8.18641,0.0941 -15.03562,4.16181 -18.75751,8.5757 -4.16645,4.94115 -5.44195,15.66901 -5.42292,17.08371 0.019,1.41469 -0.33535,15.04499 -0.28164,20.86798 0.0537,5.82299 -1.23037,23.08954 6.20479,31.46216 7.43516,8.37263 19.48871,8.3966 32.63883,8.3044 13.15013,-0.0922 19.94574,0.2769 25.2336,-0.30644 5.28787,-0.58333 10.89117,-2.48936 15.99748,-7.61917 5.06782,-5.09111 5.35397,-9.93289 6.17482,-14.71797 0.6496,-3.78697 0.6259,-14.85269 0.6289,-22.28339 0.003,-5.98829 -0.49093,-17.95808 -0.49093,-17.95808 -0.12875,-5.51239 -2.60845,-12.11964 -7.71891,-17.2067 -5.11045,-5.08707 -12.08188,-6.21246 -18.72495,-6.32468 -6.64307,-0.1122 -16.82637,-0.092 -16.82637,-0.092 z m 0.31626,7.65276 17.23926,0.10026 c 0,0 8.24886,-0.27052 12.46177,3.94239 4.18114,4.18114 5.69042,7.78449 5.7795,13.69684 l 0.26768,17.73897 -0.46819,20.21117 c 0,0 -0.59583,6.5753 -4.77697,10.75645 -4.21291,4.21291 -12.62868,4.51031 -12.62868,4.51031 l -17.67386,0.13385 c 0,0 -11.66889,0.31514 -18.00717,-0.20051 -6.33828,-0.51565 -9.08395,-1.19916 -13.29686,-5.41207 -4.18114,-4.18114 -4.38153,-10.41316 -4.44366,-14.96653 -0.0621,-4.55338 -0.0331,-11.75897 -0.0331,-11.75897 v -17.73897 c 0,0 0.16175,-11.5533 4.34288,-15.73444 4.21292,-4.21291 9.00972,-5.1418 14.96757,-5.17849 z m 28.3342,12.6095 a 5.1499252,5.1499252 0 0 1 -5.14993,5.14992 5.1499252,5.1499252 0 0 1 -5.14992,-5.14992 5.1499252,5.1499252 0 0 1 5.14992,-5.14993 5.1499252,5.1499252 0 0 1 5.14993,5.14993 z m -28.36985,0.68581 a 22.239273,22.239273 0 0 0 -22.23895,22.23947 22.239273,22.239273 0 0 0 22.23895,22.23947 22.239273,22.239273 0 0 0 22.23947,-22.23947 22.239273,22.239273 0 0 0 -22.23947,-22.23947 z m 0.0455,7.78713 a 14.465697,14.465697 0 0 1 14.46527,14.46578 14.465697,14.465697 0 0 1 -14.46527,14.46527 14.465697,14.465697 0 0 1 -14.46578,-14.46527 14.465697,14.465697 0 0 1 14.46578,-14.46578 z"
       style="fill:url(#radialGradient6111);fill-opacity:1;stroke:none;stroke-width:0.25172138;stroke-opacity:1"
       id="rect4556" />
  </g>
</svg>
